<svg version="1.1" id="Layer_1" xmlns="http://www.w3.org/2000/svg" xmlns:xlink="http://www.w3.org/1999/xlink" x="0px" y="0px"
	 width="100%" viewBox="0 0 79 72" enable-background="new 0 0 79 72" xml:space="preserve">
<path fill="#ff000000" opacity="1.000000" stroke="none" 
	d="
M50.000000,73.000000 
	C33.333336,73.000000 17.166670,73.000000 1.000004,73.000000 
	C1.000003,49.000004 1.000003,25.000010 1.000001,1.000011 
	C27.333326,1.000007 53.666653,1.000007 79.999985,1.000004 
	C79.999985,24.999990 79.999985,48.999981 79.999992,72.999985 
	C70.166664,73.000000 60.333332,73.000000 50.000000,73.000000 
M62.157253,52.870743 
	C65.832123,51.134388 68.650146,48.609291 68.822205,44.286118 
	C69.020493,39.303867 69.034836,34.302765 68.813972,29.323828 
	C68.761528,28.141531 67.454086,27.014904 66.723915,25.862671 
	C65.851479,27.071135 64.369026,28.211224 64.224426,29.501270 
	C63.837242,32.955444 64.038483,36.474148 63.978741,39.966751 
	C63.870281,46.307526 62.309868,49.063877 56.220787,49.424740 
	C45.976265,50.031853 35.667152,49.552780 25.385441,49.491642 
	C25.240894,49.490784 25.099360,48.983086 24.790039,48.396339 
	C26.425402,47.112125 28.307556,45.981529 29.707542,44.418938 
	C30.729441,43.278355 31.116257,41.568779 31.786175,40.112846 
	C30.262651,40.178860 28.398802,39.702007 27.275404,40.406273 
	C22.774891,43.227673 18.349073,46.227882 14.261814,49.605129 
	C13.290163,50.407997 12.943404,53.928703 13.658026,54.493908 
	C18.462288,58.293694 23.576824,61.717144 28.743208,65.024498 
	C29.451050,65.477631 31.003899,64.610794 32.165524,64.355080 
	C31.815884,63.335918 31.759155,61.996067 31.061041,61.358433 
	C29.061258,59.531891 26.801401,57.990093 24.643799,56.336342 
	C24.768503,55.890316 24.893209,55.444290 25.017916,54.998264 
	C32.424980,54.998264 39.840691,55.215111 47.236004,54.920319 
	C51.988911,54.730865 56.711807,53.788658 62.157253,52.870743 
M50.673965,29.166550 
	C53.703487,27.445208 56.807590,25.841034 59.743340,23.972376 
	C63.283169,21.719208 63.396503,19.262371 59.872139,17.144527 
	C52.762520,12.872256 45.533436,8.792985 38.272221,4.781462 
	C35.020370,2.984946 33.119358,4.264561 33.091839,7.924537 
	C33.028179,16.390701 33.014832,24.858517 33.115654,33.324062 
	C33.160816,37.115749 35.192875,37.983631 38.379280,36.213810 
	C42.294781,34.039032 46.149380,31.754604 50.673965,29.166550 
z"/>
<path fill="#000000" opacity="1.000000" stroke="none" 
	d="
M61.802704,53.027298 
	C56.711807,53.788658 51.988911,54.730865 47.236004,54.920319 
	C39.840691,55.215111 32.424980,54.998264 25.017916,54.998264 
	C24.893209,55.444290 24.768503,55.890316 24.643799,56.336342 
	C26.801401,57.990093 29.061258,59.531891 31.061041,61.358433 
	C31.759155,61.996067 31.815884,63.335918 32.165524,64.355080 
	C31.003899,64.610794 29.451050,65.477631 28.743208,65.024498 
	C23.576824,61.717144 18.462288,58.293694 13.658026,54.493908 
	C12.943404,53.928703 13.290163,50.407997 14.261814,49.605129 
	C18.349073,46.227882 22.774891,43.227673 27.275404,40.406273 
	C28.398802,39.702007 30.262651,40.178860 31.786175,40.112846 
	C31.116257,41.568779 30.729441,43.278355 29.707542,44.418938 
	C28.307556,45.981529 26.425402,47.112125 24.790039,48.396339 
	C25.099360,48.983086 25.240894,49.490784 25.385441,49.491642 
	C35.667152,49.552780 45.976265,50.031853 56.220787,49.424740 
	C62.309868,49.063877 63.870281,46.307526 63.978741,39.966751 
	C64.038483,36.474148 63.837242,32.955444 64.224426,29.501270 
	C64.369026,28.211224 65.851479,27.071135 66.723915,25.862671 
	C67.454086,27.014904 68.761528,28.141531 68.813972,29.323828 
	C69.034836,34.302765 69.020493,39.303867 68.822205,44.286118 
	C68.650146,48.609291 65.832123,51.134388 61.802704,53.027298 
z"/>
<path fill="#000000" opacity="1.000000" stroke="none" 
	d="
M50.352135,29.342062 
	C46.149380,31.754604 42.294781,34.039032 38.379280,36.213810 
	C35.192875,37.983631 33.160816,37.115749 33.115654,33.324062 
	C33.014832,24.858517 33.028179,16.390701 33.091839,7.924537 
	C33.119358,4.264561 35.020370,2.984946 38.272221,4.781462 
	C45.533436,8.792985 52.762520,12.872256 59.872139,17.144527 
	C63.396503,19.262371 63.283169,21.719208 59.743340,23.972376 
	C56.807590,25.841034 53.703487,27.445208 50.352135,29.342062 
M38.556274,13.100790 
	C38.404003,17.397623 38.049919,21.704588 38.264687,25.982998 
	C38.309231,26.870359 40.943382,28.631180 41.571156,28.324650 
	C45.988319,26.167809 50.192730,23.575262 54.465115,21.121916 
	C54.565922,20.499199 54.666729,19.876484 54.767532,19.253769 
	C49.510365,17.036489 44.253197,14.819209 38.556274,13.100790 
z"/>
<path fill="#ffffff" opacity="1.000000" stroke="none" 
	d="
M38.776154,12.851360 
	C44.253197,14.819209 49.510365,17.036489 54.767532,19.253769 
	C54.666729,19.876484 54.565922,20.499199 54.465115,21.121916 
	C50.192730,23.575262 45.988319,26.167809 41.571156,28.324650 
	C40.943382,28.631180 38.309231,26.870359 38.264687,25.982998 
	C38.049919,21.704588 38.404003,17.397623 38.776154,12.851360 
z"/>
</svg>